<?xml version="1.0" standalone="no"?><!DOCTYPE svg PUBLIC "-//W3C//DTD SVG 1.1//EN" "http://www.w3.org/Graphics/SVG/1.1/DTD/svg11.dtd"><svg class="icon" width="200px" height="200.00px" viewBox="0 0 1024 1024" version="1.1" xmlns="http://www.w3.org/2000/svg"><path d="M71.68 514.56a442.88 442.88 0 1 1 442.88 442.88A443.392 443.392 0 0 1 71.68 514.56z m814.32576 0a371.44576 371.44576 0 1 0-371.44576 371.44576 371.8656 371.8656 0 0 0 371.44576-371.44576z m-605.99808 39.424a51.41504 51.41504 0 0 1 0.19456-72.55552l159.232-158.63808a35.71712 35.71712 0 1 1 50.41152 50.60096L382.60736 480.256h356.16768a35.71712 35.71712 0 1 1 0 71.43424H378.40896L493.568 667.56608a35.71712 35.71712 0 0 1-50.688 50.35008z" fill="#595BB3" /></svg>