<?xml version="1.0" standalone="no"?><!DOCTYPE svg PUBLIC "-//W3C//DTD SVG 1.1//EN" "http://www.w3.org/Graphics/SVG/1.1/DTD/svg11.dtd"><svg class="icon" width="200px" height="200.00px" viewBox="0 0 1024 1024" version="1.1" xmlns="http://www.w3.org/2000/svg"><path d="M826.31168 224.13824h-55.60832a2.56 2.56 0 0 1-2.31936-1.59232A151.77728 151.77728 0 0 0 629.55008 133.12H394.44992a151.77216 151.77216 0 0 0-138.83392 89.42592 2.56 2.56 0 0 1-2.32448 1.59232h-55.6032A150.73792 150.73792 0 0 0 46.08 373.65248V746.496A150.74304 150.74304 0 0 0 197.68832 896h628.62336A150.73792 150.73792 0 0 0 977.92 746.496V373.64736a150.73792 150.73792 0 0 0-151.60832-149.50912zM905.4976 746.496a78.21312 78.21312 0 0 1-79.18592 77.02016H197.68832A78.21312 78.21312 0 0 1 118.5024 746.496V373.65248a78.21824 78.21824 0 0 1 79.18592-77.02528h55.60832a75.0848 75.0848 0 0 0 68.47488-44.544 79.27808 79.27808 0 0 1 72.704-46.44864h235.10016a79.2832 79.2832 0 0 1 72.704 46.44864 75.07968 75.07968 0 0 0 68.46976 44.544h55.60832a78.21312 78.21312 0 0 1 79.18592 77.02528V746.496z m-395.776-373.4272a185.63584 185.63584 0 1 0 185.47712 185.63584 185.76896 185.76896 0 0 0-185.46176-185.64096z m0 298.78784a113.152 113.152 0 1 1 113.05472-113.152 113.23392 113.23392 0 0 1-113.03936 113.14688zM772.096 348.19072a40.74496 40.74496 0 1 0 40.70912 40.74496 40.7296 40.7296 0 0 0-40.70912-40.74496z" fill="#1296db" /></svg>