<?xml version="1.0" standalone="no"?><!DOCTYPE svg PUBLIC "-//W3C//DTD SVG 1.1//EN" "http://www.w3.org/Graphics/SVG/1.1/DTD/svg11.dtd"><svg class="icon" width="200px" height="200.00px" viewBox="0 0 1024 1024" version="1.1" xmlns="http://www.w3.org/2000/svg"><path d="M818.72384 354.56A321.73056 321.73056 0 0 0 175.9232 363.55584 115.2 115.2 0 0 0 112.64 466.21696v106.46528a115.23584 115.23584 0 0 0 230.46656 0V466.21696a115.3024 115.3024 0 0 0-101.2736-114.23232 256.512 256.512 0 0 1 511.70816 5.44256 115.28192 115.28192 0 0 0-77.7728 108.78976v106.46528a115.26144 115.26144 0 0 0 76.22144 108.22144 255.01184 255.01184 0 0 1-173.51168 160.69632 95.56992 95.56992 0 1 0 5.76512 65.86368 320.25088 320.25088 0 0 0 235.33568-223.34464A115.27168 115.27168 0 0 0 906.24 572.68224V466.21696a115.2768 115.2768 0 0 0-87.51616-111.65696zM277.88288 466.21696v106.46528a50.00704 50.00704 0 0 1-100.01408 0V466.21696a50.00704 50.00704 0 0 1 100.01408 0zM492.032 912.73728a30.42304 30.42304 0 1 1 30.44352-30.42304 30.464 30.464 0 0 1-30.44352 30.42304z m348.96896-340.05504a50.00704 50.00704 0 0 1-100.01408 0V466.21696a50.00704 50.00704 0 0 1 100.01408 0v106.46528z" fill="#595BB3" /></svg>