<?xml version="1.0" standalone="no"?><!DOCTYPE svg PUBLIC "-//W3C//DTD SVG 1.1//EN" "http://www.w3.org/Graphics/SVG/1.1/DTD/svg11.dtd"><svg class="icon" width="200px" height="200.00px" viewBox="0 0 1024 1024" version="1.1" xmlns="http://www.w3.org/2000/svg"><path d="M914.176 467.0976L548.352 121.856c-19.712-18.5856-50.5856-18.5856-70.2976 0L112.2304 467.0976c-15.36 14.4896-20.224 36.5056-12.4416 56.1664a50.944 50.944 0 0 0 47.5648 32.3072h48.5888v310.8352c0 28.2112 22.9888 51.2 51.2 51.2h173.4144c16.9472 0 30.72-13.7728 30.72-30.72v-225.4848h123.7504v225.4848c0 16.9472 13.7728 30.72 30.72 30.72h173.4144c28.2112 0 51.2-22.9888 51.2-51.2V555.52h48.64a50.944 50.944 0 0 0 47.5648-32.3072c7.8336-19.6096 2.9696-41.6256-12.3904-56.1152z" fill="#004EA2" /></svg>