<?xml version="1.0" standalone="no"?><!DOCTYPE svg PUBLIC "-//W3C//DTD SVG 1.1//EN" "http://www.w3.org/Graphics/SVG/1.1/DTD/svg11.dtd"><svg class="icon" width="200px" height="200.00px" viewBox="0 0 1024 1024" version="1.1" xmlns="http://www.w3.org/2000/svg"><path d="M512 512c-164.8 0-309 89.5-386.8 222.3 77.7 133.5 222.2 223.5 387.4 223.5 164.8 0 309-89.6 386.6-222.7C821.5 601.8 677.1 512 512 512zM756.5 960H960c0-55.1-10.1-107.8-28.3-156.6C886.3 868.2 826.4 922 756.5 960zM92.7 802.5C74.2 851.5 64 904.6 64 960h204.6c-70.2-38.1-130.4-92.3-175.9-157.5z" fill="#FF5A5A" /><path d="M1024 208.1h-0.6c-3.6-51.9-25.2-102.9-64.9-142.6C914.8 21.8 857.5 0 800.3 0c-37 0-74 9.1-107.4 27.3-30.4 55.8-35.3 121.7-14.8 180.8 7.9 22.7 19.5 44.3 34.9 64 5.6 7.2 11.5 14.2 18.2 20.8 43.7 43.7 100.9 65.5 158.2 65.5 23.9 0 47.8-4.2 70.7-11.8v163.9c0 55-10 107.7-28.3 156.5C839.1 534.6 685.7 448 512 448c-173.4 0-326.5 86.3-419.2 218.1-18.2-48.7-28.2-101.4-28.2-156.3v-163c22.8 7.5 46.4 11.6 70.1 11.6 57.3 0 114.5-21.8 158.2-65.5 6.6-6.6 12.5-13.6 18.2-20.8 15.4-19.7 27-41.3 34.9-64 20.5-59.1 15.6-125-14.8-180.8C297.7 9.1 260.7 0 223.7 0 166.5 0 109.2 21.8 65.5 65.5 25.8 105.2 4.5 156.2 1 208.1H0.6v3.5c-0.5 8.9-0.6 17.8 0 26.7v271.6c0 80.5 18.6 156.7 51.8 224.5C18.9 802.4 0 879 0 960v64h1024v-64c0-80.7-18.7-157-52-224.9 33.2-67.8 52-144.1 52-224.7V208.1zM223.7 64c20.4 0 40.6 3.9 59.3 11.3 17.2 43.3 14.2 92-6.8 132.7-7.4 14.4-16.9 27.8-28.7 39.6-9.6 9.6-20.3 17.7-31.7 24.4-24.4 14.4-52.1 22.3-81.2 22.3-20.4 0-40.6-3.9-59.3-11.3-1.4-3.6-2.3-7.3-3.4-11-6.6-20.9-8.8-42.6-6.6-64 3.6-36 18.9-70.7 45.5-97.3C140.9 80.6 181 64 223.7 64zM64 960c0-55.4 10.2-108.5 28.7-157.5 45.5 65.2 105.7 119.3 175.9 157.5H64z m896 0H756.5c69.9-38 129.8-91.8 175.1-156.6C949.9 852.2 960 904.9 960 960z m-447.4-2.2c-165.2 0-309.8-90-387.4-223.5C203 601.5 347.2 512 512 512c165.1 0 309.5 89.8 387.2 223.1-77.6 133.1-221.8 222.7-386.6 222.7z m436-674.7c-18.8 7.5-39 11.3-59.3 11.3-29.1 0-56.9-7.9-81.2-22.3-11.4-6.8-22.1-14.8-31.7-24.4-11.8-11.8-21.3-25.2-28.7-39.6-21-40.8-23.9-89.4-6.8-132.7 18.8-7.5 39-11.3 59.4-11.3 42.7 0 82.8 16.6 112.9 46.8 26.6 26.6 41.9 61.4 45.5 97.3 2.1 21.4-0.1 43.1-6.6 64-1.2 3.6-2 7.3-3.5 10.9z" fill="#E54848" /><path d="M71.9 272.1c1.1 3.7 2 7.4 3.4 11 18.8 7.5 39 11.3 59.3 11.3 29.1 0 56.9-7.9 81.2-22.3 11.4-6.8 22.1-14.8 31.7-24.4 11.8-11.8 21.3-25.2 28.7-39.6 21-40.8 23.9-89.4 6.8-132.7-18.8-7.5-39-11.3-59.3-11.3-42.7 0-82.8 16.6-112.9 46.8-26.6 26.6-41.9 61.4-45.5 97.3-2.2 21.3 0 43 6.6 63.9zM958.7 208.1c-3.6-36-18.9-70.7-45.5-97.3C883.1 80.6 843 64 800.3 64c-20.4 0-40.6 3.9-59.4 11.3-17.2 43.3-14.2 92 6.8 132.7 7.4 14.4 16.9 27.8 28.7 39.6 9.6 9.6 20.3 17.7 31.7 24.4 24.4 14.4 52.1 22.3 81.2 22.3 20.4 0 40.6-3.9 59.3-11.3 1.4-3.6 2.3-7.3 3.4-11 6.7-20.8 8.9-42.5 6.7-63.9z" fill="#FF5A5A" /><path d="M392.3 384m-32 0a32 32 0 1 0 64 0 32 32 0 1 0-64 0Z" fill="#E54848" /><path d="M632.3 384m-32 0a32 32 0 1 0 64 0 32 32 0 1 0-64 0Z" fill="#E54848" /></svg>