<?xml version="1.0" standalone="no"?><!DOCTYPE svg PUBLIC "-//W3C//DTD SVG 1.1//EN" "http://www.w3.org/Graphics/SVG/1.1/DTD/svg11.dtd"><svg class="icon" width="200px" height="200.00px" viewBox="0 0 1024 1024" version="1.1" xmlns="http://www.w3.org/2000/svg"><path d="M978.663682 0L933.965341 44.798338z" fill="#FFE266" /><path d="M958.364436 65.597566c7.699714 7.699714 14.499462 15.999406 20.799228 24.399094l44.798337-44.798337L978.663682 0 933.965341 44.798338c8.399688 6.299766 16.69938 13.099514 24.399095 20.799228z" fill="#FFBB33" /><path d="M45.298319 1023.962001L0 978.663682l45.298319 45.298319 180.993283-180.993283z" fill="#FFE266" /><path d="M0 978.746679l181.011283-181.010282 45.25332 45.25232-181.011282 181.011283z" fill="#FFBB33" /><path d="M135.794961 571.478793l-45.298319 45.298319 316.788244 316.788244 45.298319-45.298319c67.797484-67.797484 82.696931-168.493747 45.198323-251.090682L386.585654 525.880485c-28.698935-12.999518-59.997774-20.099254-92.496567-20.099254-59.797781 0-115.995695 23.299135-158.294126 65.697562z" fill="#FF5A5A" /><path d="M497.781528 637.076358c37.498608 82.596935 22.599161 183.293198-45.198323 251.090683l-45.298319 45.298319L90.496642 616.677115l45.298319-45.298319c42.29843-42.29843 98.596341-65.597566 158.394122-65.597565 32.498794 0 63.797633 7.099737 92.496567 20.099254L302.988756 442.183591c-2.899892-0.099996-5.799785-0.399985-8.799673-0.399985-73.697265 0-147.39453 28.098957-203.592445 84.396868L0 616.677115l180.993283 180.993284 45.298319 45.298319 180.993284 180.993283 90.496642-90.496641c58.497829-58.497829 86.296798-135.794961 83.896886-212.392119l-83.896886-83.996883z" fill="#E54848" /><path d="M317.888203 366.686392l339.387406 339.387406 158.394122-158.394122-133.295053-133.295054c-14.499462-8.999666-28.198954-19.499276-40.798486-31.998812s-23.099143-26.299024-31.998813-40.798486L476.282325 208.29227 317.888203 366.686392z" fill="#FFE266" /><path d="M682.374678 414.384622l133.295053 133.295054-158.394122 158.394122-339.387406-339.387406 158.394122-158.394122 133.295054 133.295054c-23.399132-37.798597-34.398723-80.896998-33.298764-123.795406l-99.99629-99.996289-248.890763 248.890763 75.597194 75.597195 83.696894 83.696894 111.195874 111.195874 83.896887 83.896886 75.597194 75.597195 248.890764-248.890764-99.996289-99.996289c-2.099922 0.099996-4.099848 0.299989-6.19977 0.299989-40.998479-0.099996-81.796965-11.399577-117.695632-33.69875z" fill="#FFBB33" /><path d="M913.066117 110.895885C882.867237 80.597009 842.668729 63.997625 799.970314 63.997625s-82.896924 16.599384-113.095803 46.89826c-62.397684 62.397684-62.397684 163.893918 0 226.291602C717.07339 367.386367 757.271898 383.985751 799.970314 383.985751s82.896924-16.599384 113.095803-46.89826c62.397684-62.297688 62.397684-163.893918 0-226.191606z" fill="#CC7229" /><path d="M979.163664 89.99666c-6.299766-8.499685-13.099514-16.69938-20.799228-24.399094-7.699714-7.699714-15.999406-14.499462-24.399095-20.799228C894.266814 15.09944 847.168562 0 799.970314 0c-57.297874 0-114.695744 21.899187-158.394122 65.597566-42.198434 42.198434-63.797633 96.996401-65.297577 152.194352-1.199955 42.898408 9.899633 85.996809 33.298764 123.795406 8.89967 14.499462 19.499276 28.198954 31.998813 40.798486s26.299024 23.099143 40.798486 31.998812C718.273345 436.683795 759.071831 447.983376 799.970314 447.983376c2.099922 0 4.099848-0.199993 6.19977-0.299989 55.197952-1.499944 109.995918-23.099143 152.194352-65.297577 79.797039-79.797039 86.49679-204.592408 20.799228-292.38915zM799.970314 383.985751c-42.698415 0-82.896924-16.599384-113.095803-46.89826-62.397684-62.397684-62.397684-163.893918 0-226.291603C717.07339 80.597009 757.271898 63.997625 799.970314 63.997625s82.896924 16.599384 113.095803 46.89826c62.397684 62.397684 62.397684 163.893918 0 226.291602C882.867237 367.386367 842.668729 383.985751 799.970314 383.985751z" fill="#B26424" /></svg>