<?xml version="1.0" standalone="no"?><!DOCTYPE svg PUBLIC "-//W3C//DTD SVG 1.1//EN" "http://www.w3.org/Graphics/SVG/1.1/DTD/svg11.dtd"><svg class="icon" width="200px" height="200.00px" viewBox="0 0 1024 1024" version="1.1" xmlns="http://www.w3.org/2000/svg"><path d="M789.5 667.5c-72.2 0-131-84.1-131-187.5s58.8-187.5 131-187.5 131 84.1 131 187.5-58.8 187.5-131 187.5z" fill="#FFFFFF" /><path d="M789.5 293c34.8 0 67.5 19.4 92.2 54.6C906.4 383 920 430 920 480s-13.6 97-38.3 132.4C857 647.6 824.3 667 789.5 667s-67.5-19.4-92.2-54.6C672.6 577 659 530 659 480s13.6-97 38.3-132.4c24.7-35.2 57.4-54.6 92.2-54.6m0-1C716.9 292 658 376.2 658 480s58.9 188 131.5 188S921 583.8 921 480s-58.9-188-131.5-188z"  /><path d="M435 759.5c-89.6 0-173.9-29.5-237.3-83.1-63.3-53.5-98.2-124.7-98.2-200.4s34.9-146.9 98.2-200.4c63.4-53.6 147.6-83.1 237.3-83.1s173.9 29.5 237.3 83.1c63.3 53.5 98.2 124.7 98.2 200.4s-34.9 146.9-98.2 200.4C608.9 730 524.6 759.5 435 759.5z" fill="#FFFFFF" /><path d="M435 193c45.2 0 89.1 7.5 130.4 22.3 39.9 14.3 75.7 34.7 106.5 60.7 30.8 26 54.9 56.3 71.8 90 17.5 34.8 26.3 71.8 26.3 110s-8.8 75.2-26.3 110.1c-16.9 33.7-41 64-71.8 90-30.8 26-66.6 46.4-106.5 60.7C524.1 751.5 480.2 759 435 759s-89.1-7.5-130.4-22.3c-39.9-14.3-75.7-34.7-106.5-60.7-30.8-26-54.9-56.3-71.8-90-17.5-34.8-26.3-71.8-26.3-110s8.8-75.2 26.3-110.1c16.9-33.7 41-64 71.8-90 30.8-26 66.6-46.4 106.5-60.7C345.9 200.5 389.8 193 435 193m0-1C249.4 192 99 319.2 99 476s150.4 284 336 284 336-127.2 336-284-150.4-284-336-284z"  /><path d="M960 608v-32H64v32c0 21.8 2.5 43.2 6.7 64h882.6c4.2-20.8 6.7-42.2 6.7-64zM933 736H91c34.8 79.5 101.2 143.6 186.3 173.7l42.7 15.1V960h384v-35.2l42.7-15.1C831.8 879.6 898.2 815.5 933 736z" fill="#FF5A5A" /><path d="M896 512H0v96c0 167.2 106.9 309.3 256 362.1v53.9h512v-53.9c149.1-52.7 256-194.9 256-362.1v-96H896zM704 960H320v-35.2l-42.7-15.1C192.2 879.6 125.8 815.5 91 736h842c-34.8 79.5-101.2 143.6-186.3 173.7L704 924.8V960zM64 608v-32h896v32c0 21.8-2.5 43.2-6.7 64H70.7c-4.2-20.8-6.7-42.2-6.7-64z" fill="#E54848" /><path d="M432 208c69.7 0 133.8 23.8 185.1 63.4 19.6 15.1 37.3 32.4 52.7 51.8 22.8 28.6 40.3 61.5 51.7 97.2 1.5 4.8 3.2 9.5 4.5 14.4 6.5 24.6 10 50.5 10 77.2h64c0-32-4.2-63-11.9-92.6-8.7-33.3-21.7-64.8-38.8-93.8 20.6 5 39.9 13.4 57.4 24.5 19.1 12.1 35.8 27.5 49.6 45.4l19.5-72.9c-15.7-14.2-33-26.7-51.9-36.7-18.8-10-39-17.5-60.2-22.6-19.2-4.6-39.1-7.3-59.6-7.3-2.5 0-4.9 0.3-7.4 0.4C629.7 187.1 535.9 144 432 144 228.8 144 64 308.8 64 512h64c0-167.6 136.4-304 304-304zM882.8 442.5c8.4 21.6 13.2 44.9 13.2 69.5h64c0-46.6-12.7-90.3-34.5-127.9L908 449.3l-25.2-6.8z" fill="#FFE266" /><path d="M553.5 305.3c-35.7-21-77.1-33.3-121.5-33.3-132.5 0-240 107.5-240 240h64c0-97 79-176 176-176 25.9 0 50.3 5.7 72.5 15.8 19.8 9 37.6 21.4 52.7 36.7C588.6 420.3 608 463.9 608 512h64c0-63.9-25.2-121.9-65.9-164.9-15.5-16.3-33.2-30.4-52.6-41.8z" fill="#FFE266" /><path d="M470.7 407c-12.1-4.5-25.1-7-38.7-7-61.9 0-112 50.1-112 112h64c0-26.5 21.5-48 48-48 7.1 0 13.9 1.7 20 4.5 16.5 7.6 28 24.2 28 43.5h64c0-24.1-7.7-46.3-20.6-64.6-13-18.3-31.3-32.5-52.7-40.4zM882.8 442.5l25.2 6.8 17.5-65.2c-13.3-23.1-30.2-43.7-49.8-61.5l-19.5 72.9c11 14.2 20 30 26.6 47z" fill="#FFE266" /><path d="M925.5 384.1L1024 16.6 962.2 0l-86.4 322.6c19.6 17.7 36.4 38.4 49.7 61.5zM896 16.6L834.2 0l-70.5 263.3c21.2 5.1 41.4 12.6 60.2 22.6L896 16.6z" fill="#FFBB33" /></svg>