<?xml version="1.0" standalone="no"?><!DOCTYPE svg PUBLIC "-//W3C//DTD SVG 1.1//EN" "http://www.w3.org/Graphics/SVG/1.1/DTD/svg11.dtd"><svg class="icon" width="200px" height="200.00px" viewBox="0 0 1024 1024" version="1.1" xmlns="http://www.w3.org/2000/svg"><path d="M720.3 64H613.4l-90 160h106.9zM320 585.7L109.4 960h106.9L320 775.6zM399.3 960l504-896H793.7l-504 896zM960 960V93.7L472.7 960z" fill="#FBE7BA" /><path d="M576 0L450 224h73.4l90-160h289.9l-504 896H109.4L320 585.7V455.1L0 1024h1024V0H576z m384 960H472.7L960 93.7V960z" fill="#FFBB33" /><path d="M384 288v373.8L594.3 288z" fill="#FFBB33" /><path d="M320 775.6l64-113.8V288h210.3l36-64H320v361.7z" fill="#FF9D33" /><path d="M594.3 288L384 661.8l-64 113.8L216.3 960h73.4l504-896h-73.4l-90 160z" fill="#66CC2B" /></svg>