<?xml version="1.0" standalone="no"?><!DOCTYPE svg PUBLIC "-//W3C//DTD SVG 1.1//EN" "http://www.w3.org/Graphics/SVG/1.1/DTD/svg11.dtd"><svg class="icon" width="200px" height="200.00px" viewBox="0 0 1024 1024" version="1.1" xmlns="http://www.w3.org/2000/svg"><path d="M844.8 218.624H179.2c-27.8528 0-50.4832 22.6304-50.4832 50.4832v436.736c0 27.8528 22.6304 50.4832 50.4832 50.4832h161.5872c3.4304 0 5.6832 1.7408 6.7584 2.816 1.024 1.024 2.816 3.328 2.7648 6.7584l-0.1536 59.4944c-0.0512 19.712 10.9568 37.2224 28.7744 45.6704 7.0144 3.328 14.4896 5.0176 21.8624 5.0176 11.3152 0 22.528-3.8912 31.744-11.4176l130.5088-106.1888c1.6896-1.3824 3.84-2.1504 6.0416-2.1504H844.8c27.8528 0 50.4832-22.6304 50.4832-50.4832v-436.736c0.0512-27.8016-22.6304-50.4832-50.4832-50.4832z m-299.776 269.8752c0 19.7632-16.0768 35.84-35.84 35.84s-35.84-16.0768-35.84-35.84 16.0768-35.84 35.84-35.84 35.84 16.0768 35.84 35.84z m123.3408 0c0-19.7632 16.0768-35.84 35.84-35.84s35.84 16.0768 35.84 35.84-16.0768 35.84-35.84 35.84-35.84-16.0768-35.84-35.84z m-318.3104 0c0 19.7632-16.0768 35.84-35.84 35.84s-35.84-16.0768-35.84-35.84 16.0768-35.84 35.84-35.84 35.84 16.0768 35.84 35.84z" fill="#004EA2" /></svg>