<?xml version="1.0" standalone="no"?><!DOCTYPE svg PUBLIC "-//W3C//DTD SVG 1.1//EN" "http://www.w3.org/Graphics/SVG/1.1/DTD/svg11.dtd"><svg class="icon" width="200px" height="200.00px" viewBox="0 0 1024 1024" version="1.1" xmlns="http://www.w3.org/2000/svg"><path d="M815.39072 112.64H198.3744A157.83936 157.83936 0 0 0 40.96 270.55104v379.78112a157.84448 157.84448 0 0 0 157.4144 157.91104h14.79168a1.62816 1.62816 0 0 1 1.57696 1.27488l10.10688 45.71648a77.77792 77.77792 0 0 0 120.32 47.3856l135.78752-94.08512a1.62816 1.62816 0 0 1 0.9216-0.29184h333.5168A157.83936 157.83936 0 0 0 972.8 650.33216V270.55104A157.83936 157.83936 0 0 0 815.39072 112.64zM896.512 650.33216a81.35168 81.35168 0 0 1-81.13152 81.408H481.87904a77.42464 77.42464 0 0 0-44.27264 13.824L301.81888 839.68a1.61792 1.61792 0 0 1-2.50368-0.98816l-10.10688-45.71648a77.47584 77.47584 0 0 0-76.04736-61.23008h-14.78656a81.3568 81.3568 0 0 1-81.13664-81.408V270.55104a81.3568 81.3568 0 0 1 81.13664-81.408h617.01632a81.35168 81.35168 0 0 1 81.13152 81.408v379.78112zM337.98656 424.68352a49.24416 49.24416 0 1 0 49.08544 49.24416 49.152 49.152 0 0 0-49.08544-49.24416z m184.0896 0a49.24416 49.24416 0 1 0 49.09056 49.24416 49.152 49.152 0 0 0-49.09056-49.24416z m177.07008 0a49.24416 49.24416 0 1 0 49.09056 49.24416 49.152 49.152 0 0 0-49.09056-49.24416z" fill="#595BB3" /></svg>