<?xml version="1.0" standalone="no"?><!DOCTYPE svg PUBLIC "-//W3C//DTD SVG 1.1//EN" "http://www.w3.org/Graphics/SVG/1.1/DTD/svg11.dtd"><svg class="icon" width="200px" height="200.00px" viewBox="0 0 1024 1024" version="1.1" xmlns="http://www.w3.org/2000/svg"><path d="M788.8896 184.3712H672.768c-9.2672-40.704-45.6704-71.168-89.088-71.168H421.5808c-43.4688 0-79.8208 30.5152-89.088 71.168H215.5008c-28.2112 0-51.2 22.9888-51.2 51.2v623.4624c0 28.2112 22.9888 51.2 51.2 51.2h573.44c28.2112 0 51.2-22.9888 51.2-51.2V235.5712c-0.0512-28.2112-22.9888-51.2-51.2512-51.2z m-376.32-16.384h179.2512c10.9568 0 19.8656 9.1648 19.8656 20.48s-8.9088 20.48-19.8656 20.48H412.5696c-10.9568 0-19.8656-9.1648-19.8656-20.48s8.9088-20.48 19.8656-20.48zM337.152 392.1408h236.6464c11.3152 0 20.48 9.1648 20.48 20.48s-9.1648 20.48-20.48 20.48H337.152c-11.3152 0-20.48-9.1648-20.48-20.48s9.1648-20.48 20.48-20.48z m329.0112 371.8656H337.152c-11.3152 0-20.48-9.1648-20.48-20.48s9.1648-20.48 20.48-20.48h328.96c11.3152 0 20.48 9.1648 20.48 20.48s-9.1136 20.48-20.4288 20.48z m0-165.4272H337.152c-11.3152 0-20.48-9.1648-20.48-20.48s9.1648-20.48 20.48-20.48h328.96c11.3152 0 20.48 9.1648 20.48 20.48s-9.1136 20.48-20.4288 20.48z" fill="#004EA2" /></svg>