<?xml version="1.0" standalone="no"?><!DOCTYPE svg PUBLIC "-//W3C//DTD SVG 1.1//EN" "http://www.w3.org/Graphics/SVG/1.1/DTD/svg11.dtd"><svg class="icon" width="200px" height="200.00px" viewBox="0 0 1024 1024" version="1.1" xmlns="http://www.w3.org/2000/svg"><path d="M869.2736 867.328c-15.6672-156.672-133.0176-284.0576-287.8464-312.5248 95.1296-29.2352 157.952-119.7568 151.9616-219.136-9.8304-108.4928-97.5872-193.4848-206.336-199.7824-121.088-10.3936-227.6864 79.36-238.08 200.448-0.4096 4.7104-0.6656 9.472-0.768 14.1824 1.1264 93.952 62.72 176.4352 152.5248 204.1856-154.8288 28.4672-272.1792 155.9552-287.7952 312.576v1.024a16.72704 16.72704 0 0 0 15.6672 17.7152c0.4096 0 0.8192 0.0512 1.28 0.0512h682.4448c9.2672 0.2048 16.896-7.1168 17.1008-16.384 0-0.4608 0-0.9216-0.0512-1.3824l-0.1024-0.9728z" fill="#004EA2" /></svg>