<?xml version="1.0" standalone="no"?><!DOCTYPE svg PUBLIC "-//W3C//DTD SVG 1.1//EN" "http://www.w3.org/Graphics/SVG/1.1/DTD/svg11.dtd"><svg class="icon" width="200px" height="200.00px" viewBox="0 0 1024 1024" version="1.1" xmlns="http://www.w3.org/2000/svg"><path d="M358.8608 666.7776l207.9232-97.4336 97.4336-207.9232-211.1488 94.208z" fill="#004EA2" /><path d="M512 107.9296c-224.2048 0-406.6304 182.4256-406.6304 406.6304s182.4256 406.6304 406.6304 406.6304 406.6304-182.4256 406.6304-406.6304S736.2048 107.9296 512 107.9296z m227.7376 212.9408l-130.56 278.5792a25.79456 25.79456 0 0 1-12.3392 12.3392l-278.5792 130.56c-3.4816 1.6384-7.168 2.4064-10.8544 2.4064-6.5536 0-13.056-2.5088-17.92-7.3216a25.63584 25.63584 0 0 1-5.4272-28.7232l126.208-282.88c2.56-5.7856 7.168-10.3936 12.9536-12.9536l282.88-126.208a25.6512 25.6512 0 0 1 28.7232 5.4272 25.55904 25.55904 0 0 1 4.9152 28.7744z" fill="#004EA2" /></svg>