<?xml version="1.0" standalone="no"?><!DOCTYPE svg PUBLIC "-//W3C//DTD SVG 1.1//EN" "http://www.w3.org/Graphics/SVG/1.1/DTD/svg11.dtd"><svg class="icon" width="200px" height="200.00px" viewBox="0 0 1024 1024" version="1.1" xmlns="http://www.w3.org/2000/svg"><path d="M514.56 681.2928a176.08192 176.08192 0 1 1 176.53248-176.08192 176.50688 176.50688 0 0 1-176.53248 176.08192z m0-284.4416a108.35968 108.35968 0 1 0 108.63104 108.35968A108.6208 108.6208 0 0 0 514.56 396.8512zM348.38016 936.96a151.28576 151.28576 0 0 1-17.06496-0.96768 146.62144 146.62144 0 0 1-127.91808-125.9776 145.01888 145.01888 0 0 1 22.528-98.21184 354.46784 354.46784 0 0 1-32.16384-54.22592 145.60768 145.60768 0 0 1-6.144-291.13856 353.9968 353.9968 0 0 1 33.8944-61.58336A143.99488 143.99488 0 0 1 202.33728 226.816 146.01216 146.01216 0 0 1 470.6816 153.4976a357.02784 357.02784 0 0 1 79.76448-0.896 146.08896 146.08896 0 0 1 266.79808 61.68576 144.09216 144.09216 0 0 1-14.5152 83.77344 353.792 353.792 0 0 1 38.9632 68.85888 151.45984 151.45984 0 0 1 94.55104 44.28288A142.81216 142.81216 0 0 1 977.92 514.7136a146.51904 146.51904 0 0 1-142.5664 142.848 354.38592 354.38592 0 0 1-36.864 60.56448 145.8176 145.8176 0 1 1-255.53408 140.40064 358.30272 358.30272 0 0 1-64.92672-0.76288A144.70656 144.70656 0 0 1 348.38016 936.96z m-144.93696-347.5968a52.63872 52.63872 0 0 1 48.06656 31.39072 286.75072 286.75072 0 0 0 34.92352 58.74688 52.52096 52.52096 0 0 1 0 64.2304 77.97248 77.97248 0 1 0 133.84192 77.34784 52.736 52.736 0 0 1 55.808-31.744 290.41664 290.41664 0 0 0 70.24128 0.84992 52.85376 52.85376 0 0 1 54.22592 31.49312 78.10048 78.10048 0 0 0 149.02784-18.26304 76.8 76.8 0 0 0-12.98944-56.21248 52.84864 52.84864 0 0 1 2.29888-62.94528 286.48448 286.48448 0 0 0 38.55872-63.21152 52.83328 52.83328 0 0 1 50.99008-31.27296c1.15712 0.06656 2.33984 0.1024 3.51744 0.1024a78.336 78.336 0 0 0 78.06976-76.40064 75.66336 75.66336 0 0 0-22.22592-54.784 82.97984 82.97984 0 0 0-58.77248-24.576h-0.09728a49.152 49.152 0 0 1-46.1056-31.744 286.13632 286.13632 0 0 0-39.97184-71.10656 52.736 52.736 0 0 1-3.17952-59.25888 77.14304 77.14304 0 0 0 10.1888-49.33632 78.15168 78.15168 0 0 0-145.5616-28.16 52.97152 52.97152 0 0 1-53.15584 26.34752 289.39776 289.39776 0 0 0-80.35328 1.024 52.66432 52.66432 0 0 1-54.08768-26.49088 78.08512 78.08512 0 0 0-146.51904 34.0992 76.98944 76.98944 0 0 0 13.312 46.592 52.46464 52.46464 0 0 1-1.16736 60.30336 286.94528 286.94528 0 0 0-35.47136 64.4864A52.40832 52.40832 0 0 1 195.18976 434.176c-1.024-0.0512-2.08896-0.08192-3.1488-0.08192a78.40256 78.40256 0 0 0-57.62048 25.3184 77.824 77.824 0 0 0 41.8816 128.87552 79.31904 79.31904 0 0 0 22.528 1.28q2.33472-0.19968 4.61312-0.19968zM828.928 400.24064z" fill="#595BB3" /></svg>